<svg xmlns="http://www.w3.org/2000/svg" width="720" height="585" viewBox="0 0 720 585">
  <title>40_5_マイナポータルの役割と機能構成図</title>

  <style>
    text {
      font-family: "Noto Sans JP", sans-serif;
      fill: #0017B6;
    }

    .title {
      font-size: 20px;
      font-weight: 700;
      fill: #FFFFFF;
    }

    .subtitle {
      font-size: 13px;
      font-weight: 400;
      fill: #FFFFFF;
      opacity: 0.86;
    }

    .section-title {
      font-size: 16px;
      font-weight: 700;
    }

    .box-title {
      font-size: 15px;
      font-weight: 700;
    }

    .body {
      font-size: 13px;
      font-weight: 400;
      fill: #34415F;
    }

    .small {
      font-size: 12px;
      font-weight: 400;
      fill: #4E5A76;
    }

    .stroke {
      stroke: #0017B6;
      stroke-width: 1.5;
    }
  </style>

  
  <rect width="720" height="585" fill="#FFFFFF"/>

  
  <rect x="1" y="1" width="718" height="583" rx="7" fill="#FFFFFF" stroke="#0017B6" stroke-width="1.5"/>

  
  <rect x="7" y="7" width="706" height="70" rx="5" fill="#0017B6"/>

  <text x="360" y="35" text-anchor="middle" class="title">マイナポータル</text>

  <text x="360" y="58" text-anchor="middle" class="subtitle">法制度に基づく行政サービスの入口</text>

  
  <rect x="10" y="95" width="700" height="42" rx="3" fill="#F1F3FF" class="stroke"/>

  <text x="360" y="121" text-anchor="middle" class="section-title">マイナポータルの役割</text>

  
  <rect x="20" y="150" width="330" height="62" rx="5" fill="#FFFFFF" class="stroke"/>

  <text x="185" y="187" text-anchor="middle" class="box-title">行政サービスの提供</text>

  <rect x="370" y="150" width="330" height="62" rx="5" fill="#FFFFFF" class="stroke"/>

  <text x="535" y="187" text-anchor="middle" class="box-title">法制度に基づくデータ連携</text>

  
  <rect x="10" y="230" width="700" height="42" rx="3" fill="#F1F3FF" class="stroke"/>

  <text x="360" y="256" text-anchor="middle" class="section-title">マイナポータルの機能（例）</text>

  
  <rect x="20" y="285" width="160" height="100" rx="6" fill="#FFFFFF" class="stroke"/>

  <text x="100" y="326" text-anchor="middle" class="box-title">利用者認証</text>

  <text x="100" y="348" text-anchor="middle" class="small">（公的個人認証</text>

  <text x="100" y="366" text-anchor="middle" class="small">JPKI）</text>

  
  <rect x="193" y="285" width="160" height="100" rx="6" fill="#FFFFFF" class="stroke"/>

  <text x="273" y="334" text-anchor="middle" class="box-title">利用者情報</text>

  <text x="273" y="356" text-anchor="middle" class="small">（属性・ID）</text>

  
  <rect x="367" y="285" width="160" height="100" rx="6" fill="#FFFFFF" class="stroke"/>

  <text x="447" y="330" text-anchor="middle" class="box-title">お知らせ／</text>

  <text x="447" y="354" text-anchor="middle" class="small">申請情報</text>

  
  <rect x="540" y="285" width="160" height="100" rx="6" fill="#FFFFFF" class="stroke"/>

  <text x="620" y="330" text-anchor="middle" class="box-title">行政サービス</text>

  <text x="620" y="354" text-anchor="middle" class="small">メニュー</text>

  
  <rect x="10" y="408" width="700" height="42" rx="3" fill="#F1F3FF" class="stroke"/>

  <text x="360" y="434" text-anchor="middle" class="section-title">データ連携の制約（マイナ系APIの特性）</text>

  
  <rect x="20" y="465" width="680" height="100" rx="6" fill="#FFFFFF" class="stroke"/>

  <text x="34" y="505" class="body">
    <tspan x="34" dy="0">
      ・APIの提供範囲や利用目的が法制度に限定される
    </tspan>
    <tspan x="34" dy="24">
      ・サービス提供主体の制御や接続条件が厳格である
    </tspan>
  </text>

</svg>
