<svg xmlns="http://www.w3.org/2000/svg" width="582" height="535" viewBox="0 0 582 535">
  <title>42_8_Ouranos Ecosystem構成図</title>
  <style>
    text {
      font-family: "Noto Sans JP", sans-serif;
      fill: #0017B6;
    }
    .title {
      font-size: 20px;
      font-weight: 700;
      fill: #fff;
    }
    .subtitle {
      font-size: 12px;
      fill: #fff;
    }
    .heading {
      font-size: 15px;
      font-weight: 700;
    }
    .boxText {
      font-size: 12px;
    }
    .smallText {
      font-size: 11px;
    }
    .principle {
      font-size: 16px;
    }
  </style>

  
  <rect width="582" height="535" fill="#fff"/>

  
  <rect x="1" y="1" width="580" height="533" rx="7" fill="#F3F7FF" stroke="#0017B6" stroke-width="1.5"/>

  
  <rect x="3" y="3" width="576" height="63" rx="6" fill="#0017B6"/>

  <text x="291" y="32" text-anchor="middle" class="title">
    Ouranos Ecosystem（データスペース連携の共通思想）
  </text>
  <text x="291" y="50" text-anchor="middle" class="subtitle">
    分野分散型のデータスペースを相互接続するための共通アーキテクチャとDS群
  </text>

  
  <rect x="17" y="77" width="548" height="76" rx="9" fill="#fff" stroke="#0017B6"/>

  <text x="291" y="97" text-anchor="middle" class="heading">
    分野別基盤（データスペース）
  </text>

  <g fill="#F7F9FF" stroke="#0017B6">
    <rect x="53" y="109" width="76" height="38" rx="3"/>
    <rect x="136" y="109" width="76" height="38" rx="3"/>
    <rect x="219" y="109" width="76" height="38" rx="3"/>
    <rect x="302" y="109" width="76" height="38" rx="3"/>
    <rect x="385" y="109" width="75" height="38" rx="3"/>
  </g>

  <g class="boxText" text-anchor="middle">
    <text x="91" y="133">防災</text>
    <text x="174" y="133">医療・健康</text>
    <text x="257" y="133">モビリティ</text>
    <text x="340" y="133">エネルギー</text>
    <text x="422.5" y="133">観光</text>
  </g>

  <text x="500" y="133" text-anchor="middle" font-size="20" font-weight="700">…</text>

  
  <rect x="17" y="187" width="548" height="92" rx="10" fill="#fff" stroke="#0017B6"/>

  <text x="291" y="207" text-anchor="middle" class="heading">
    Ouranos基盤コンポーネント（DS-RAMに基づく共通機能）
  </text>

  <g fill="#F7F9FF" stroke="#0017B6">
    <rect x="22" y="216" width="100" height="56" rx="6"/>
    <rect x="128" y="216" width="100" height="56" rx="6"/>
    <rect x="234" y="216" width="100" height="56" rx="6"/>
    <rect x="340" y="216" width="100" height="56" rx="6"/>
    <rect x="446" y="216" width="100" height="56" rx="6"/>
  </g>

  <g class="smallText" text-anchor="middle">
    <text x="72" y="240">
      <tspan x="72" dy="0">カタログ／</tspan>
      <tspan x="72" dy="15">メタデータ</tspan>
    </text>

    <text x="178" y="239">
      <tspan x="178" dy="0">ポリシー・契約</tspan>
      <tspan x="178" dy="15">(Usage Control)</tspan>
    </text>

    <text x="284" y="239">
      <tspan x="284" dy="0">コネクタ</tspan>
      <tspan x="284" dy="15">（データ交換）</tspan>
    </text>

    <text x="390" y="249">認証・信頼基盤</text>

    <text x="496" y="239">
      <tspan x="496" dy="0">データモデル・</tspan>
      <tspan x="496" dy="15">スキーマ</tspan>
    </text>
  </g>

  
  <rect x="17" y="305" width="548" height="87" rx="4" fill="#fff" stroke="#0017B6"/>

  <text x="291" y="324" text-anchor="middle" class="heading">
    接続・相互運用基盤（共通機能群）
  </text>

  <g fill="#F7F9FF" stroke="#0017B6">
    <rect x="22" y="336" width="132" height="50" rx="6"/>
    <rect x="159" y="336" width="132" height="50" rx="6"/>
    <rect x="296" y="336" width="132" height="50" rx="6"/>
    <rect x="433" y="336" width="132" height="50" rx="6"/>
  </g>

  <g class="smallText" text-anchor="middle">
    <text x="88" y="366">相互接続機能</text>
    <text x="225" y="366">データ変換・マッピング</text>
    <text x="362" y="366">トラスト管理／来歴管理</text>
    <text x="499" y="356">
      <tspan x="499" dy="0">サンドボックス／</tspan>
      <tspan x="499" dy="15">データ利用環境</tspan>
    </text>
  </g>

  
  <rect x="17" y="405" width="548" height="43" rx="4" fill="#E8EEFA" stroke="#0017B6"/>

  <text x="291" y="432" text-anchor="middle" class="heading" font-size="13">
    OSS・SDK等の提供（デプロイ用SDK・リファレンス実装 等）
  </text>

  
  <rect x="17" y="466" width="548" height="40" fill="#fff"/>

  <text x="291" y="492" text-anchor="middle" class="principle">
    共通原則：自律分散・データ主権・トラスト・契約に基づくデータ流通
  </text>
</svg>
